<mxfile host="app.diagrams.net" modified="2024-07-23T09:15:06.361Z" agent="Mozilla/5.0 (Windows NT 10.0; Win64; x64; rv:128.0) Gecko/20100101 Firefox/128.0" etag="nf4DcDFKRctN2pIgOrGc" version="24.7.3" type="github">
  <diagram id="C5RBs43oDa-KdzZeNtuy" name="Page-1">
    <mxGraphModel dx="1290" dy="578" grid="1" gridSize="10" guides="1" tooltips="1" connect="1" arrows="1" fold="1" page="1" pageScale="1" pageWidth="827" pageHeight="1169" math="0" shadow="0">
      <root>
        <mxCell id="WIyWlLk6GJQsqaUBKTNV-0" />
        <mxCell id="WIyWlLk6GJQsqaUBKTNV-1" parent="WIyWlLk6GJQsqaUBKTNV-0" />
        <mxCell id="VaVjKeRcpqaGk_Q-SBMP-0" style="edgeStyle=orthogonalEdgeStyle;rounded=0;orthogonalLoop=1;jettySize=auto;html=1;entryX=0.5;entryY=0;entryDx=0;entryDy=0;" edge="1" parent="WIyWlLk6GJQsqaUBKTNV-1" source="VaVjKeRcpqaGk_Q-SBMP-1">
          <mxGeometry relative="1" as="geometry">
            <mxPoint x="135" y="220" as="targetPoint" />
          </mxGeometry>
        </mxCell>
        <mxCell id="VaVjKeRcpqaGk_Q-SBMP-1" value="&lt;div&gt;increment&lt;/div&gt;&lt;div&gt;cart[selectedCat][selectedItem] by 1&lt;/div&gt;" style="rounded=0;whiteSpace=wrap;html=1;" vertex="1" parent="WIyWlLk6GJQsqaUBKTNV-1">
          <mxGeometry x="30" y="120" width="210" height="50" as="geometry" />
        </mxCell>
        <mxCell id="VaVjKeRcpqaGk_Q-SBMP-2" style="edgeStyle=orthogonalEdgeStyle;rounded=0;orthogonalLoop=1;jettySize=auto;html=1;entryX=0.5;entryY=0;entryDx=0;entryDy=0;exitX=0.5;exitY=1;exitDx=0;exitDy=0;exitPerimeter=0;" edge="1" parent="WIyWlLk6GJQsqaUBKTNV-1" source="VaVjKeRcpqaGk_Q-SBMP-3" target="VaVjKeRcpqaGk_Q-SBMP-1">
          <mxGeometry relative="1" as="geometry">
            <mxPoint x="135" y="80" as="sourcePoint" />
          </mxGeometry>
        </mxCell>
        <mxCell id="VaVjKeRcpqaGk_Q-SBMP-3" value="start" style="strokeWidth=2;html=1;shape=mxgraph.flowchart.terminator;whiteSpace=wrap;" vertex="1" parent="WIyWlLk6GJQsqaUBKTNV-1">
          <mxGeometry x="85" y="10" width="100" height="60" as="geometry" />
        </mxCell>
        <mxCell id="VaVjKeRcpqaGk_Q-SBMP-4" value="end" style="strokeWidth=2;html=1;shape=mxgraph.flowchart.terminator;whiteSpace=wrap;" vertex="1" parent="WIyWlLk6GJQsqaUBKTNV-1">
          <mxGeometry x="85" y="340" width="100" height="60" as="geometry" />
        </mxCell>
        <object label="" id="VaVjKeRcpqaGk_Q-SBMP-5">
          <mxCell style="verticalLabelPosition=bottom;verticalAlign=top;html=1;shape=process;whiteSpace=wrap;rounded=1;size=0.14;arcSize=6;" vertex="1" parent="WIyWlLk6GJQsqaUBKTNV-1">
            <mxGeometry x="75" y="220" width="120" height="80" as="geometry" />
          </mxCell>
        </object>
        <mxCell id="VaVjKeRcpqaGk_Q-SBMP-6" value="update_labels" style="text;html=1;align=center;verticalAlign=middle;whiteSpace=wrap;rounded=0;" vertex="1" parent="WIyWlLk6GJQsqaUBKTNV-1">
          <mxGeometry x="105" y="245" width="60" height="30" as="geometry" />
        </mxCell>
        <mxCell id="VaVjKeRcpqaGk_Q-SBMP-7" style="edgeStyle=orthogonalEdgeStyle;rounded=0;orthogonalLoop=1;jettySize=auto;html=1;exitX=0.5;exitY=1;exitDx=0;exitDy=0;entryX=0.5;entryY=0;entryDx=0;entryDy=0;entryPerimeter=0;" edge="1" parent="WIyWlLk6GJQsqaUBKTNV-1" source="VaVjKeRcpqaGk_Q-SBMP-5" target="VaVjKeRcpqaGk_Q-SBMP-4">
          <mxGeometry relative="1" as="geometry" />
        </mxCell>
      </root>
    </mxGraphModel>
  </diagram>
</mxfile>
